# This file uses centimeters as units for non-parametric coordinates.

mtllib ship1.mtl
g default
v -5.010600 -0.308912 2.493769
v 4.996295 -0.304713 2.493769
v -5.000000 0.490441 2.500000
v 5.000000 0.497593 2.500000
v -5.000000 0.490441 -2.500000
v 5.000000 0.497593 -2.500000
v -4.998362 -0.501835 -2.493769
v 4.996295 -0.509548 -2.493769
v 9.997776 -0.499244 1.663902
v 5.000000 1.500000 2.500000
v 10.000000 1.500000 1.661834
v 5.000000 1.500000 -2.500000
v 10.000000 1.500000 -1.661834
v 9.997776 -0.500290 -1.660452
v -9.997776 -0.499900 2.238369
v -10.000000 2.500000 2.239510
v -5.000000 2.500000 2.500000
v -10.000000 2.500000 -2.239510
v -5.000000 2.500000 -2.500000
v -9.997776 -0.501054 -2.238164
v 10.000001 0.495187 -1.661834
v 10.000001 0.495187 1.661834
v -10.000000 0.480881 2.239510
v -10.000000 0.480881 -2.239510
v -9.995551 -2.223197 -0.721393
v -9.995551 -1.891609 -1.372170
v -9.995551 -1.375149 -1.888631
v -9.995551 -0.724371 -2.220218
v -9.995551 -0.724369 2.220217
v -9.995551 -1.375146 1.888630
v -9.995551 -1.891606 1.372170
v -9.995551 -2.223194 0.721393
v -9.995551 -2.337452 -0.000000
v 9.995551 -1.669539 -0.536230
v 9.995551 -1.423061 -1.019969
v 9.995551 -1.039160 -1.403867
v 9.995551 -0.555420 -1.650343
v 9.995551 -0.555422 1.650342
v 9.995551 -1.039161 1.403867
v 9.995551 -1.423061 1.019967
v 9.995551 -1.669539 0.536229
v 9.995551 -1.754469 -0.000000
v -9.997776 -0.500013 -0.001843
v 9.997776 -0.504102 -0.001367
v -5.021201 -1.082562 2.365789
v -5.021201 -1.082563 -2.365790
v -5.021201 -1.776009 -2.012461
v -5.021201 -2.326332 -1.462139
v -5.021201 -2.679661 -0.768692
v -5.021201 -2.801408 0.000000
v -5.021201 -2.679659 0.768692
v -5.021201 -2.326331 1.462138
v -5.021201 -1.776009 2.012461
v -5.021201 -0.313872 -0.000000
v 4.992590 -1.082564 2.365789
v 4.992590 -1.082564 -2.365790
v 4.992590 -1.776010 -2.012461
v 4.992590 -2.326333 -1.462139
v 4.992590 -2.679662 -0.768692
v 4.992590 -2.801410 0.000000
v 4.992590 -2.679661 0.768692
v 4.992590 -2.326333 1.462138
v 4.992590 -1.776010 2.012461
v 4.992590 -0.313872 -0.000000
v -5.000000 -0.500000 -0.004114
v -10.000000 0.480881 -0.003685
v -10.000000 2.500000 -0.003685
v -5.000000 2.500000 -0.004114
v -5.000000 0.490441 -0.004114
v 5.000000 0.497593 -0.004114
v 5.000000 1.500000 -0.004114
v 10.000000 1.500000 -0.002735
v 10.000000 0.495187 -0.002735
v 4.996295 -0.407299 -0.004104
v -5.000000 -0.500000 -0.004114
vt 0.375000 0.000000
vt 0.625000 0.000000
vt 0.375000 0.250000
vt 0.625000 0.250000
vt 0.375000 0.500000
vt 0.625000 0.500000
vt 0.375000 0.750000
vt 0.625000 0.750000
vt 0.375000 1.000000
vt 0.625000 1.000000
vt 0.375000 0.000000
vt 0.625000 0.000000
vt 0.625000 0.250000
vt 0.375000 0.250000
vt 0.625000 0.500000
vt 0.375000 0.500000
vt 0.625000 0.750000
vt 0.375000 0.750000
vt 0.625000 1.000000
vt 0.375000 1.000000
vt 0.875000 0.000000
vt 0.875000 0.250000
vt 0.125000 0.250000
vt 0.375000 0.000000
vt 0.625000 0.000000
vt 0.625000 0.250000
vt 0.375000 0.250000
vt 0.625000 0.500000
vt 0.375000 0.500000
vt 0.625000 0.750000
vt 0.375000 0.750000
vt 0.625000 1.000000
vt 0.375000 1.000000
vt 0.875000 0.250000
vt 0.125000 0.000000
vt 0.125000 0.250000
vt 0.375000 0.124398
vt 0.125000 0.124398
vt 0.375000 0.625602
vt 0.625000 0.625602
vt 0.875000 0.124398
vt 0.625000 0.124398
vt 0.625000 0.081740
vt 0.375000 0.081740
vt 0.125000 0.081740
vt 0.375000 0.668260
vt 0.625000 0.668260
vt 0.875000 0.081740
vt 0.375000 0.312500
vt 0.387500 0.312500
vt 0.387500 0.405811
vt 0.375000 0.405811
vt 0.400000 0.312500
vt 0.400000 0.405811
vt 0.412500 0.312500
vt 0.412500 0.405811
vt 0.425000 0.312500
vt 0.425000 0.405811
vt 0.550000 0.312500
vt 0.562500 0.312500
vt 0.562500 0.405811
vt 0.550000 0.405811
vt 0.575000 0.312500
vt 0.575000 0.405811
vt 0.587500 0.312500
vt 0.587500 0.405811
vt 0.600000 0.312500
vt 0.600000 0.405811
vt 0.612500 0.312500
vt 0.612500 0.405811
vt 0.625000 0.312500
vt 0.625000 0.405811
vt 0.626409 0.064408
vt 0.648603 0.107966
vt 0.500000 0.156250
vt 0.591842 0.029841
vt 0.548284 0.007647
vt 0.500000 -0.000000
vt 0.548284 0.304853
vt 0.500000 0.312500
vt 0.591841 0.282659
vt 0.626409 0.248091
vt 0.648603 0.204534
vt 0.656250 0.156250
vt 0.648603 0.892034
vt 0.626409 0.935591
vt 0.500000 0.843750
vt 0.591841 0.970159
vt 0.548284 0.992353
vt 0.500000 1.000000
vt 0.500000 0.687500
vt 0.548284 0.695147
vt 0.591842 0.717341
vt 0.626409 0.751908
vt 0.648603 0.795466
vt 0.656250 0.843750
vt 0.509448 0.288440
vt 0.537558 0.405811
vt 0.562500 0.593653
vt 0.550000 0.593653
vt 0.478141 0.554550
vt 0.512513 0.593653
vt 0.425000 0.593653
vt 0.412500 0.593653
vt 0.400000 0.593653
vt 0.387500 0.593653
vt 0.375000 0.593653
vt 0.625000 0.593653
vt 0.612500 0.593653
vt 0.600000 0.593653
vt 0.587500 0.593653
vt 0.575000 0.593653
vt 0.481338 0.171069
vt 0.562500 0.687500
vt 0.550000 0.687500
vt 0.425000 0.687500
vt 0.443769 0.515447
vt 0.412500 0.687500
vt 0.400000 0.687500
vt 0.387500 0.687500
vt 0.375000 0.687500
vt 0.625000 0.687500
vt 0.612500 0.687500
vt 0.600000 0.687500
vt 0.587500 0.687500
vt 0.575000 0.687500
vt 0.625000 0.874794
vt 0.249794 0.000000
vt 0.375000 0.874794
vt 0.249794 0.081740
vt 0.249794 0.250000
vt 0.375000 0.375206
vt 0.625000 0.375206
vt 0.750206 0.250000
vt 0.750206 0.081740
vt 0.375000 0.375206
vt 0.625000 0.375206
vt 0.249794 0.124398
vt 0.249794 0.250000
vt 0.375000 0.375206
vt 0.625000 0.375206
vt 0.750206 0.250000
vt 0.750206 0.124398
vt 0.625000 0.874794
vt 0.750206 0.000000
vt 0.625000 0.874794
vt 0.375000 0.874794
vt 0.375000 0.874794
vn 0.000004 -0.007780 0.999970
vn 0.000004 -0.007780 0.999970
vn 0.000004 -0.007780 0.999970
vn 0.000004 -0.007780 0.999970
vn -0.000715 1.000000 0.000000
vn -0.000715 1.000000 0.000000
vn -0.000715 1.000000 0.000000
vn -0.000715 1.000000 0.000000
vn -0.000000 -0.006233 -0.999981
vn -0.000000 -0.006233 -0.999981
vn -0.000000 -0.006233 -0.999981
vn -0.000000 -0.006233 -0.999981
vn 0.004250 -0.999773 0.020900
vn 0.004250 -0.999773 0.020900
vn 0.004545 -0.999195 0.039859
vn 0.004545 -0.999194 0.039880
vn 0.164452 -0.002828 0.986381
vn 0.164452 -0.002828 0.986381
vn 0.164914 -0.001335 0.986307
vn 0.164913 -0.001337 0.986307
vn 0.000000 1.000000 0.000000
vn 0.000000 1.000000 0.000000
vn 0.000000 1.000000 0.000000
vn 0.000000 1.000000 0.000000
vn 0.165083 -0.002117 -0.986277
vn 0.165083 -0.002116 -0.986277
vn 0.164839 -0.004237 -0.986311
vn 0.164839 -0.004237 -0.986311
vn -0.010731 -0.999661 0.023719
vn -0.010731 -0.999661 0.023719
vn -0.018871 -0.999515 0.024758
vn -0.018869 -0.999515 0.024758
vn 0.999998 -0.002230 0.000000
vn 0.999998 -0.002229 -0.000002
vn 0.999999 -0.001110 -0.000001
vn 0.999999 -0.001111 0.000000
vn -0.051508 -0.003894 0.998665
vn -0.051508 -0.003894 0.998665
vn -0.051870 -0.001183 0.998653
vn -0.051868 -0.001193 0.998653
vn 0.000000 1.000000 0.000000
vn 0.000000 1.000000 0.000000
vn 0.000000 1.000000 0.000000
vn 0.000000 1.000000 0.000000
vn -0.051867 -0.001295 -0.998653
vn -0.051867 -0.001292 -0.998653
vn -0.051540 -0.003934 -0.998663
vn -0.051540 -0.003934 -0.998663
vn -0.000061 -1.000000 0.000609
vn -0.000061 -1.000000 0.000609
vn 0.009009 -0.999750 0.020474
vn 0.009029 -0.999749 0.020516
vn -0.999997 -0.002267 0.000001
vn -0.999997 -0.002268 0.000000
vn -1.000000 -0.000741 0.000000
vn -1.000000 -0.000741 0.000000
vn -1.000000 0.000000 0.000000
vn -1.000000 0.000000 0.000000
vn -1.000000 0.000000 0.000000
vn -1.000000 0.000000 0.000000
vn 0.165326 0.000000 -0.986239
vn 0.165326 0.000000 -0.986239
vn 1.000000 -0.000000 0.000000
vn 1.000000 -0.000000 0.000000
vn 0.165326 0.000000 0.986239
vn 0.165326 0.000000 0.986239
vn -0.052027 0.000000 0.998646
vn -0.052027 0.000000 0.998646
vn -1.000000 0.000000 0.000000
vn -1.000000 0.000000 0.000000
vn -0.052027 0.000000 -0.998646
vn -0.052027 0.000000 -0.998646
vn 1.000000 0.000000 0.000000
vn 1.000000 0.000000 0.000000
vn 1.000000 0.000000 0.000000
vn 1.000000 0.000000 0.000000
vn -0.089809 -0.946628 -0.309565
vn -0.080933 -0.804239 -0.588769
vn -0.026323 -0.809434 -0.586621
vn -0.029140 -0.950846 -0.308291
vn -0.067102 -0.582428 -0.810108
vn -0.021917 -0.588966 -0.807861
vn -0.054482 -0.354399 -0.933506
vn -0.016614 -0.357968 -0.933586
vn -0.045923 -0.177244 -0.983095
vn -0.011374 -0.206968 -0.978282
vn -0.042218 -0.144386 0.988620
vn -0.052424 -0.327528 0.943386
vn -0.015252 -0.319743 0.947382
vn -0.009835 -0.158511 0.987308
vn -0.067102 -0.582428 0.810108
vn -0.021917 -0.588966 0.807861
vn -0.080934 -0.804239 0.588769
vn -0.026323 -0.809434 0.586620
vn -0.089810 -0.946627 0.309566
vn -0.029140 -0.950845 0.308292
vn -0.092867 -0.995679 0.000001
vn -0.030109 -0.999547 0.000001
vn -0.999999 -0.000920 -0.000691
vn -0.999999 -0.001133 -0.000379
vn -0.999999 -0.001111 -0.000000
vn -1.000000 -0.000621 -0.000892
vn -0.999994 -0.003310 -0.000668
vn -0.999951 -0.009952 0.000005
vn -0.999994 -0.003306 0.000667
vn -0.999951 -0.009907 0.000000
vn -0.999999 -0.000618 0.000891
vn -0.999999 -0.000918 0.000690
vn -0.999999 -0.001133 0.000379
vn -0.999999 -0.001211 0.000000
vn 0.999999 -0.001653 -0.000561
vn 0.999999 -0.001312 -0.001001
vn 0.999999 -0.001407 -0.000001
vn 0.999999 -0.000860 -0.001259
vn 0.999978 -0.006491 -0.001147
vn 0.999187 -0.040314 -0.000093
vn 0.999216 -0.039591 0.000116
vn 0.999977 -0.006644 0.001141
vn 0.999999 -0.000858 0.001257
vn 0.999999 -0.001311 0.001000
vn 0.999999 -0.001652 0.000561
vn 0.999998 -0.001780 0.000000
vn -0.009196 0.999394 -0.033567
vn -0.028690 0.999378 -0.020515
vn -0.037797 0.999285 -0.000986
vn -0.011962 0.999926 -0.002254
vn 0.043501 -0.321098 0.946047
vn 0.032527 -0.163849 0.985949
vn 0.013513 0.999361 -0.033078
vn 0.012731 0.999844 -0.012215
vn 0.034329 -0.216368 -0.975708
vn 0.045307 -0.361199 -0.931387
vn 0.054367 -0.588044 -0.807000
vn 0.058097 -0.808244 -0.585975
vn 0.060482 -0.949480 -0.307946
vn 0.061302 -0.998119 0.000001
vn 0.060482 -0.949479 0.307946
vn 0.058097 -0.808245 0.585974
vn 0.054367 -0.588044 0.807000
vn -0.005824 0.997849 -0.065300
vn -0.019580 0.999007 -0.040013
vn 0.167582 -0.335732 0.926930
vn 0.155925 -0.166345 0.973661
vn 0.030029 0.999242 -0.024758
vn 0.013056 0.998427 -0.054526
vn 0.030029 0.999242 -0.024758
vn 0.030029 0.999242 -0.024758
vn 0.160625 -0.213365 -0.963678
vn 0.169660 -0.368678 -0.913943
vn 0.181689 -0.574350 -0.798192
vn 0.194134 -0.791707 -0.579234
vn 0.202092 -0.930905 -0.304262
vn 0.204827 -0.978798 0.000000
vn 0.202092 -0.930905 0.304262
vn 0.194134 -0.791707 0.579233
vn 0.181689 -0.574351 0.798192
vn 0.018087 -0.999022 0.040355
vn 0.018087 -0.999022 0.040355
vn -0.999997 -0.002268 0.000000
vn -1.000000 -0.000741 0.000000
vn -1.000000 0.000000 0.000000
vn 0.000000 1.000000 0.000000
vn 0.000000 1.000000 0.000000
vn 1.000000 0.000000 0.000000
vn 1.000000 0.000000 0.000000
vn -0.000715 1.000000 0.000000
vn -0.000715 1.000000 0.000000
vn -1.000000 0.000000 0.000000
vn -1.000000 0.000000 0.000000
vn 0.000000 1.000000 0.000000
vn 0.000000 1.000000 0.000000
vn 0.999999 -0.001112 0.000001
vn 1.000000 0.000000 -0.000000
vn 0.999998 -0.002230 0.000003
vn -0.026972 -0.999303 0.025790
vn -0.026972 -0.999303 0.025790
vn 0.004836 -0.998264 0.058693
vn 0.004836 -0.998264 0.058693
s off
g pCube5
usemtl initialShadingGroup
f 1/1/1 2/2/2 4/4/3 3/3/4
s 1
f 69/136/5 70/137/6 6/6/7 5/5/8
s off
f 5/5/9 6/6/10 8/8/11 7/7/12
s 2
f 7/7/13 8/8/14 74/146/15 75/148/16
s 3
f 2/11/17 9/12/18 22/42/19 4/37/20
s 4
f 71/140/21 72/141/22 13/15/23 12/16/24
s 5
f 6/39/25 21/40/26 14/17/27 8/18/28
s 6
f 8/18/29 14/17/30 44/144/31 74/147/32
s 7
f 44/145/33 14/21/34 21/41/35 73/143/36
s 8
f 15/24/37 1/25/38 3/43/39 23/44/40
s 9
f 67/132/41 68/133/42 19/28/43 18/29/44
s 10
f 24/46/45 5/47/46 7/30/47 20/31/48
s 11
f 20/31/49 7/30/50 65/127/51 43/129/52
s 12
f 20/35/53 43/128/54 66/130/55 24/45/56
s 13
f 6/38/57 70/138/58 71/139/59 12/23/60
s 5
f 12/16/61 13/15/62 21/40/26 6/39/25
s 7
f 73/143/36 21/41/35 13/22/63 72/142/64
s 3
f 4/37/20 22/42/19 11/13/65 10/14/66
s 8
f 23/44/40 3/43/39 17/26/67 16/27/68
s 12
f 24/45/56 66/130/55 67/131/69 18/36/70
s 10
f 18/29/71 19/28/72 5/47/46 24/46/45
s 14
f 69/135/73 5/48/74 19/34/75 68/134/76
s 15
f 25/49/77 26/50/78 48/51/79 49/52/80
f 26/50/78 27/53/81 47/54/82 48/51/79
f 27/53/81 28/55/83 46/56/84 47/54/82
f 28/55/83 20/57/85 7/58/86 46/56/84
f 15/59/87 29/60/88 45/61/89 1/62/90
f 29/60/88 30/63/91 53/64/92 45/61/89
f 30/63/91 31/65/93 52/66/94 53/64/92
f 31/65/93 32/67/95 51/68/96 52/66/94
f 32/67/95 33/69/97 50/70/98 51/68/96
f 33/69/97 25/71/77 49/72/80 50/70/98
s 17
f 26/73/99 25/74/100 43/75/101
f 27/76/102 26/73/99 43/75/101
f 28/77/103 27/76/102 43/75/101
f 20/78/104 28/77/103 43/75/101
f 29/79/105 15/80/106 43/75/101
f 30/81/107 29/79/105 43/75/101
f 31/82/108 30/81/107 43/75/101
f 32/83/109 31/82/108 43/75/101
f 33/84/110 32/83/109 43/75/101
f 25/74/100 33/84/110 43/75/101
s 19
f 34/85/111 35/86/112 44/87/113
f 35/86/112 36/88/114 44/87/113
f 36/88/114 37/89/115 44/87/113
f 37/89/115 14/90/116 44/87/113
f 9/91/117 38/92/118 44/87/113
f 38/92/118 39/93/119 44/87/113
f 39/93/119 40/94/120 44/87/113
f 40/94/120 41/95/121 44/87/113
f 41/95/121 42/96/122 44/87/113
f 42/96/122 34/85/111 44/87/113
s 21
f 54/97/123 43/75/124 15/59/125 1/98/126
s 15
f 1/62/90 45/61/89 55/99/127 2/100/128
s 21
f 64/101/129 54/97/123 1/98/126 2/102/130
s 15
f 46/56/84 7/58/86 8/103/131 56/104/132
f 47/54/82 46/56/84 56/104/132 57/105/133
f 48/51/79 47/54/82 57/105/133 58/106/134
f 49/52/80 48/51/79 58/106/134 59/107/135
f 50/70/98 49/72/80 59/108/135 60/109/136
f 51/68/96 50/70/98 60/109/136 61/110/137
f 52/66/94 51/68/96 61/110/137 62/111/138
f 53/64/92 52/66/94 62/111/138 63/112/139
f 45/61/89 53/64/92 63/112/139 55/99/127
s 21
f 7/113/140 20/78/141 43/75/124 54/97/123
s 15
f 2/100/128 55/99/127 38/114/142 9/115/143
s 21
f 14/116/144 8/117/145 64/101/129 2/102/130 9/91/146 44/87/147
s 15
f 56/104/132 8/103/131 14/116/148 37/118/149
f 57/105/133 56/104/132 37/118/149 36/119/150
f 58/106/134 57/105/133 36/119/150 35/120/151
f 59/107/135 58/106/134 35/120/151 34/121/152
f 60/109/136 59/108/135 34/122/152 42/123/153
f 61/110/137 60/109/136 42/123/153 41/124/154
f 62/111/138 61/110/137 41/124/154 40/125/155
f 63/112/139 62/111/138 40/125/155 39/126/156
f 55/99/127 63/112/139 39/126/156 38/114/142
s 21
f 8/117/145 7/113/140 54/97/123 64/101/129
s 11
f 43/129/52 65/127/51 1/32/157 15/33/158
s 12
f 66/130/55 43/128/54 15/24/159 23/44/160
f 67/131/69 66/130/55 23/44/160 16/27/161
s 9
f 16/27/162 17/26/163 68/133/42 67/132/41
s 14
f 3/43/164 69/135/73 68/134/76 17/26/165
s 1
f 3/3/166 4/4/167 70/137/6 69/136/5
s 13
f 71/139/59 70/138/58 4/37/168 10/14/169
s 4
f 10/14/170 11/13/171 72/141/22 71/140/21
s 7
f 22/42/172 73/143/36 72/142/64 11/13/173
f 9/12/174 44/145/33 73/143/36 22/42/172
s 6
f 74/147/32 44/144/31 9/19/175 2/20/176
s 2
f 75/148/16 74/146/15 2/10/177 1/9/178
g default
v 0.475529 0.166120 -0.154509
v 0.404509 0.166120 -0.293893
v 0.293893 0.166120 -0.404509
v 0.154509 0.166120 -0.475529
v 0.000000 0.166120 -0.500000
v -0.154509 0.166120 -0.475528
v -0.293893 0.166120 -0.404509
v -0.404509 0.166120 -0.293893
v -0.475528 0.166120 -0.154509
v -0.500000 0.166120 0.000000
v -0.475528 0.166120 0.154509
v -0.404509 0.166120 0.293893
v -0.293893 0.166120 0.404509
v -0.154509 0.166120 0.475528
v -0.000000 0.166120 0.500000
v 0.154508 0.166120 0.475528
v 0.293893 0.166120 0.404509
v 0.404509 0.166120 0.293893
v 0.475528 0.166120 0.154509
v 0.500000 0.166120 0.000000
v 0.475529 4.749030 -0.154509
v 0.404509 4.749030 -0.293893
v 0.293893 4.749030 -0.404509
v 0.154509 4.749030 -0.475529
v 0.000000 4.749030 -0.500000
v -0.154509 4.749030 -0.475528
v -0.293893 4.749030 -0.404509
v -0.404509 4.749030 -0.293893
v -0.475528 4.749030 -0.154509
v -0.500000 4.749030 0.000000
v -0.475528 4.749030 0.154509
v -0.404509 4.749030 0.293893
v -0.293893 4.749030 0.404509
v -0.154509 4.749030 0.475528
v -0.000000 4.749030 0.500000
v 0.154508 4.749030 0.475528
v 0.293893 4.749030 0.404509
v 0.404509 4.749030 0.293893
v 0.475528 4.749030 0.154509
v 0.500000 4.749030 0.000000
v 0.000000 0.166120 0.000000
v 0.000000 4.749030 0.000000
vt 0.648603 0.107966
vt 0.626409 0.064408
vt 0.591842 0.029841
vt 0.548284 0.007647
vt 0.500000 -0.000000
vt 0.451716 0.007647
vt 0.408159 0.029841
vt 0.373591 0.064409
vt 0.351397 0.107966
vt 0.343750 0.156250
vt 0.351397 0.204534
vt 0.373591 0.248091
vt 0.408159 0.282659
vt 0.451716 0.304853
vt 0.500000 0.312500
vt 0.548284 0.304853
vt 0.591841 0.282659
vt 0.626409 0.248091
vt 0.648603 0.204534
vt 0.656250 0.156250
vt 0.375000 0.312500
vt 0.387500 0.312500
vt 0.400000 0.312500
vt 0.412500 0.312500
vt 0.425000 0.312500
vt 0.437500 0.312500
vt 0.450000 0.312500
vt 0.462500 0.312500
vt 0.475000 0.312500
vt 0.487500 0.312500
vt 0.500000 0.312500
vt 0.512500 0.312500
vt 0.525000 0.312500
vt 0.537500 0.312500
vt 0.550000 0.312500
vt 0.562500 0.312500
vt 0.575000 0.312500
vt 0.587500 0.312500
vt 0.600000 0.312500
vt 0.612500 0.312500
vt 0.625000 0.312500
vt 0.375000 0.687500
vt 0.387500 0.687500
vt 0.400000 0.687500
vt 0.412500 0.687500
vt 0.425000 0.687500
vt 0.437500 0.687500
vt 0.450000 0.687500
vt 0.462500 0.687500
vt 0.475000 0.687500
vt 0.487500 0.687500
vt 0.500000 0.687500
vt 0.512500 0.687500
vt 0.525000 0.687500
vt 0.537500 0.687500
vt 0.550000 0.687500
vt 0.562500 0.687500
vt 0.575000 0.687500
vt 0.587500 0.687500
vt 0.600000 0.687500
vt 0.612500 0.687500
vt 0.625000 0.687500
vt 0.648603 0.795466
vt 0.626409 0.751908
vt 0.591842 0.717341
vt 0.548284 0.695147
vt 0.500000 0.687500
vt 0.451716 0.695147
vt 0.408159 0.717341
vt 0.373591 0.751909
vt 0.351397 0.795466
vt 0.343750 0.843750
vt 0.351397 0.892034
vt 0.373591 0.935591
vt 0.408159 0.970159
vt 0.451716 0.992353
vt 0.500000 1.000000
vt 0.548284 0.992353
vt 0.591841 0.970159
vt 0.626409 0.935591
vt 0.648603 0.892034
vt 0.656250 0.843750
vt 0.500000 0.156250
vt 0.500000 0.843750
vn 0.951057 0.000000 -0.309016
vn 0.809017 0.000000 -0.587785
vn 0.809017 0.000000 -0.587785
vn 0.951057 0.000000 -0.309016
vn 0.587785 0.000000 -0.809017
vn 0.587785 0.000000 -0.809017
vn 0.309017 0.000000 -0.951057
vn 0.309017 0.000000 -0.951057
vn -0.000000 0.000000 -1.000000
vn -0.000000 0.000000 -1.000000
vn -0.309017 0.000000 -0.951056
vn -0.309017 0.000000 -0.951056
vn -0.587785 0.000000 -0.809017
vn -0.587785 0.000000 -0.809017
vn -0.809017 0.000000 -0.587785
vn -0.809017 0.000000 -0.587785
vn -0.951057 0.000000 -0.309017
vn -0.951057 0.000000 -0.309017
vn -1.000000 0.000000 0.000000
vn -1.000000 0.000000 0.000000
vn -0.951057 0.000000 0.309017
vn -0.951057 0.000000 0.309017
vn -0.809017 0.000000 0.587785
vn -0.809017 0.000000 0.587785
vn -0.587785 0.000000 0.809017
vn -0.587785 0.000000 0.809017
vn -0.309017 0.000000 0.951057
vn -0.309017 0.000000 0.951057
vn 0.000000 0.000000 1.000000
vn 0.000000 0.000000 1.000000
vn 0.309017 0.000000 0.951057
vn 0.309017 0.000000 0.951057
vn 0.587785 0.000000 0.809017
vn 0.587785 0.000000 0.809017
vn 0.809017 0.000000 0.587785
vn 0.809017 0.000000 0.587785
vn 0.951057 0.000000 0.309017
vn 0.951057 0.000000 0.309017
vn 1.000000 0.000000 0.000001
vn 1.000000 0.000000 0.000001
vn 0.000000 -1.000000 0.000000
vn 0.000000 -1.000000 0.000000
vn 0.000000 -1.000000 0.000000
vn 0.000000 -1.000000 0.000000
vn 0.000000 -1.000000 0.000000
vn 0.000000 -1.000000 0.000000
vn 0.000000 -1.000000 0.000000
vn 0.000000 -1.000000 0.000000
vn 0.000000 -1.000000 0.000000
vn 0.000000 -1.000000 0.000000
vn 0.000000 -1.000000 0.000000
vn 0.000000 -1.000000 0.000000
vn 0.000000 -1.000000 0.000000
vn 0.000000 -1.000000 0.000000
vn 0.000000 -1.000000 0.000000
vn 0.000000 -1.000000 0.000000
vn 0.000000 -1.000000 0.000000
vn 0.000000 -1.000000 0.000000
vn 0.000000 -1.000000 0.000000
vn 0.000000 -1.000000 0.000000
vn 0.000000 -1.000000 0.000000
vn 0.000000 1.000000 0.000000
vn 0.000000 1.000000 0.000000
vn 0.000000 1.000000 0.000000
vn 0.000000 1.000000 0.000000
vn 0.000000 1.000000 0.000000
vn 0.000000 1.000000 0.000000
vn 0.000000 1.000000 0.000000
vn 0.000000 1.000000 0.000000
vn 0.000000 1.000000 0.000000
vn 0.000000 1.000000 0.000000
vn 0.000000 1.000000 0.000000
vn 0.000000 1.000000 0.000000
vn 0.000000 1.000000 0.000000
vn 0.000000 1.000000 0.000000
vn 0.000000 1.000000 0.000000
vn 0.000000 1.000000 0.000000
vn 0.000000 1.000000 0.000000
vn 0.000000 1.000000 0.000000
vn 0.000000 1.000000 0.000000
vn 0.000000 1.000000 0.000000
vn 0.000000 1.000000 0.000000
s 1
g pCylinder2
usemtl initialShadingGroup
f 76/169/179 77/170/180 97/191/181 96/190/182
f 77/170/180 78/171/183 98/192/184 97/191/181
f 78/171/183 79/172/185 99/193/186 98/192/184
f 79/172/185 80/173/187 100/194/188 99/193/186
f 80/173/187 81/174/189 101/195/190 100/194/188
f 81/174/189 82/175/191 102/196/192 101/195/190
f 82/175/191 83/176/193 103/197/194 102/196/192
f 83/176/193 84/177/195 104/198/196 103/197/194
f 84/177/195 85/178/197 105/199/198 104/198/196
f 85/178/197 86/179/199 106/200/200 105/199/198
f 86/179/199 87/180/201 107/201/202 106/200/200
f 87/180/201 88/181/203 108/202/204 107/201/202
f 88/181/203 89/182/205 109/203/206 108/202/204
f 89/182/205 90/183/207 110/204/208 109/203/206
f 90/183/207 91/184/209 111/205/210 110/204/208
f 91/184/209 92/185/211 112/206/212 111/205/210
f 92/185/211 93/186/213 113/207/214 112/206/212
f 93/186/213 94/187/215 114/208/216 113/207/214
f 94/187/215 95/188/217 115/209/218 114/208/216
f 95/188/217 76/189/179 96/210/182 115/209/218
s 2
f 77/150/219 76/149/220 116/231/221
f 78/151/222 77/150/219 116/231/221
f 79/152/223 78/151/222 116/231/221
f 80/153/224 79/152/223 116/231/221
f 81/154/225 80/153/224 116/231/221
f 82/155/226 81/154/225 116/231/221
f 83/156/227 82/155/226 116/231/221
f 84/157/228 83/156/227 116/231/221
f 85/158/229 84/157/228 116/231/221
f 86/159/230 85/158/229 116/231/221
f 87/160/231 86/159/230 116/231/221
f 88/161/232 87/160/231 116/231/221
f 89/162/233 88/161/232 116/231/221
f 90/163/234 89/162/233 116/231/221
f 91/164/235 90/163/234 116/231/221
f 92/165/236 91/164/235 116/231/221
f 93/166/237 92/165/236 116/231/221
f 94/167/238 93/166/237 116/231/221
f 95/168/239 94/167/238 116/231/221
f 76/149/220 95/168/239 116/231/221
s 3
f 96/229/240 97/228/241 117/232/242
f 97/228/241 98/227/243 117/232/242
f 98/227/243 99/226/244 117/232/242
f 99/226/244 100/225/245 117/232/242
f 100/225/245 101/224/246 117/232/242
f 101/224/246 102/223/247 117/232/242
f 102/223/247 103/222/248 117/232/242
f 103/222/248 104/221/249 117/232/242
f 104/221/249 105/220/250 117/232/242
f 105/220/250 106/219/251 117/232/242
f 106/219/251 107/218/252 117/232/242
f 107/218/252 108/217/253 117/232/242
f 108/217/253 109/216/254 117/232/242
f 109/216/254 110/215/255 117/232/242
f 110/215/255 111/214/256 117/232/242
f 111/214/256 112/213/257 117/232/242
f 112/213/257 113/212/258 117/232/242
f 113/212/258 114/211/259 117/232/242
f 114/211/259 115/230/260 117/232/242
f 115/230/260 96/229/240 117/232/242
